HIERARCHY
ROOT Hips
{
	OFFSET 0.000000 97.167313 0.000000
	CHANNELS 6 Xposition Yposition Zposition Xrotation Yrotation Zrotation
	JOINT Spine
	{
		OFFSET 0.000000 13.784798 0.064400
		CHANNELS 3 Xrotation Yrotation Zrotation
		JOINT Spine1
		{
			OFFSET 0.000000 12.037903 0.404700
			CHANNELS 3 Xrotation Yrotation Zrotation
			JOINT Spine2
			{
				OFFSET 0.000000 17.795601 0.420200
				CHANNELS 3 Xrotation Yrotation Zrotation
				JOINT Neck
				{
					OFFSET 0.000000 39.131302 11.954600
					CHANNELS 3 Xrotation Yrotation Zrotation
					JOINT Head
					{
						OFFSET 0.000000 14.456192 15.627699
						CHANNELS 3 Xrotation Yrotation Zrotation
						JOINT HeadTop_End
						{
							OFFSET 0.000000 15.703506 7.603401
							CHANNELS 3 Xrotation Yrotation Zrotation
							End Site
							{
								OFFSET 0.000000 17.447403 0.000000
							}
						}
					}
				}
				JOINT LeftShoulder
				{
					OFFSET 17.399500 24.608795 1.168800
					CHANNELS 3 Xrotation Yrotation Zrotation
					JOINT LeftArm
					{
						OFFSET 18.980635 5.765305 1.818600
						CHANNELS 3 Xrotation Yrotation Zrotation
						JOINT LeftForeArm
						{
							OFFSET 49.290169 0.000000 0.000000
							CHANNELS 3 Xrotation Yrotation Zrotation
							JOINT LeftHand
							{
								OFFSET 31.562012 0.000000 0.000000
								CHANNELS 3 Xrotation Yrotation Zrotation
								JOINT LeftHandThumb1
								{
									OFFSET 6.133995 -4.388519 7.076070
									CHANNELS 3 Xrotation Yrotation Zrotation
									JOINT LeftHandThumb2
									{
										OFFSET 6.037666 -3.485840 3.485847
										CHANNELS 3 Xrotation Yrotation Zrotation
										JOINT LeftHandThumb3
										{
											OFFSET 6.496506 -3.750763 3.750761
											CHANNELS 3 Xrotation Yrotation Zrotation
											JOINT LeftHandThumb4
											{
												OFFSET 5.616882 -3.242905 3.242910
												CHANNELS 3 Xrotation Yrotation Zrotation
												End Site
												{
													OFFSET -1.254608 7.132141 0.375429
												}
											}
										}
									}
								}
								JOINT LeftHandPinky1
								{
									OFFSET 18.920792 -0.453171 -11.426712
									CHANNELS 3 Xrotation Yrotation Zrotation
									JOINT LeftHandPinky2
									{
										OFFSET 4.919586 0.000000 0.000000
										CHANNELS 3 Xrotation Yrotation Zrotation
										JOINT LeftHandPinky3
										{
											OFFSET 5.233047 0.000000 0.000000
											CHANNELS 3 Xrotation Yrotation Zrotation
											JOINT LeftHandPinky4
											{
												OFFSET 5.571716 0.000000 0.000000
												CHANNELS 3 Xrotation Yrotation Zrotation
												End Site
												{
													OFFSET -3.459808 4.342407 -0.466164
												}
											}
										}
									}
								}
								JOINT LeftHandRing1
								{
									OFFSET 22.726120 -0.094986 -6.500475
									CHANNELS 3 Xrotation Yrotation Zrotation
									JOINT LeftHandRing2
									{
										OFFSET 6.408615 0.000000 0.000000
										CHANNELS 3 Xrotation Yrotation Zrotation
										JOINT LeftHandRing3
										{
											OFFSET 6.150223 0.000000 0.000000
											CHANNELS 3 Xrotation Yrotation Zrotation
											JOINT LeftHandRing4
											{
												OFFSET 6.145386 0.000000 0.000000
												CHANNELS 3 Xrotation Yrotation Zrotation
												End Site
												{
													OFFSET -3.671402 4.923981 -0.202372
												}
											}
										}
									}
								}
								JOINT LeftHandMiddle1
								{
									OFFSET 23.373947 0.000000 0.000001
									CHANNELS 3 Xrotation Yrotation Zrotation
									JOINT LeftHandMiddle2
									{
										OFFSET 6.996567 0.000000 0.000000
										CHANNELS 3 Xrotation Yrotation Zrotation
										JOINT LeftHandMiddle3
										{
											OFFSET 7.015945 0.000000 0.000000
											CHANNELS 3 Xrotation Yrotation Zrotation
											JOINT LeftHandMiddle4
											{
												OFFSET 7.721573 0.000000 0.000000
												CHANNELS 3 Xrotation Yrotation Zrotation
												End Site
												{
													OFFSET -4.651108 6.158463 0.251582
												}
											}
										}
									}
								}
								JOINT LeftHandIndex1
								{
									OFFSET 21.310577 -0.490082 6.209344
									CHANNELS 3 Xrotation Yrotation Zrotation
									JOINT LeftHandIndex2
									{
										OFFSET 7.536453 0.000000 0.000000
										CHANNELS 3 Xrotation Yrotation Zrotation
										JOINT LeftHandIndex3
										{
											OFFSET 7.512344 0.000000 0.000000
											CHANNELS 3 Xrotation Yrotation Zrotation
											JOINT LeftHandIndex4
											{
												OFFSET 10.212402 0.000000 0.000001
												CHANNELS 3 Xrotation Yrotation Zrotation
												End Site
												{
													OFFSET -5.180801 8.690506 1.388433
												}
											}
										}
									}
								}
							}
						}
					}
				}
				JOINT RightShoulder
				{
					OFFSET -17.399500 24.608795 1.168800
					CHANNELS 3 Xrotation Yrotation Zrotation
					JOINT RightArm
					{
						OFFSET -18.980635 5.765305 1.818600
						CHANNELS 3 Xrotation Yrotation Zrotation
						JOINT RightForeArm
						{
							OFFSET -49.290169 0.000000 0.000000
							CHANNELS 3 Xrotation Yrotation Zrotation
							JOINT RightHand
							{
								OFFSET -31.562012 0.000000 0.000000
								CHANNELS 3 Xrotation Yrotation Zrotation
								JOINT RightHandThumb1
								{
									OFFSET -6.133995 -4.388519 7.076070
									CHANNELS 3 Xrotation Yrotation Zrotation
									JOINT RightHandThumb2
									{
										OFFSET -6.037666 -3.485840 3.485847
										CHANNELS 3 Xrotation Yrotation Zrotation
										JOINT RightHandThumb3
										{
											OFFSET -6.496506 -3.750763 3.750761
											CHANNELS 3 Xrotation Yrotation Zrotation
											JOINT RightHandThumb4
											{
												OFFSET -5.616882 -3.242905 3.242910
												CHANNELS 3 Xrotation Yrotation Zrotation
												End Site
												{
													OFFSET 1.254608 7.132141 0.375429
												}
											}
										}
									}
								}
								JOINT RightHandIndex1
								{
									OFFSET -21.310577 -0.490082 6.209344
									CHANNELS 3 Xrotation Yrotation Zrotation
									JOINT RightHandIndex2
									{
										OFFSET -7.536453 0.000000 0.000000
										CHANNELS 3 Xrotation Yrotation Zrotation
										JOINT RightHandIndex3
										{
											OFFSET -7.512344 0.000000 0.000000
											CHANNELS 3 Xrotation Yrotation Zrotation
											JOINT RightHandIndex4
											{
												OFFSET -10.212402 0.000000 0.000001
												CHANNELS 3 Xrotation Yrotation Zrotation
												End Site
												{
													OFFSET 5.180801 8.690506 1.388433
												}
											}
										}
									}
								}
								JOINT RightHandMiddle1
								{
									OFFSET -23.373947 0.000000 0.000001
									CHANNELS 3 Xrotation Yrotation Zrotation
									JOINT RightHandMiddle2
									{
										OFFSET -6.996567 0.000000 0.000000
										CHANNELS 3 Xrotation Yrotation Zrotation
										JOINT RightHandMiddle3
										{
											OFFSET -7.015945 0.000000 0.000000
											CHANNELS 3 Xrotation Yrotation Zrotation
											JOINT RightHandMiddle4
											{
												OFFSET -7.721573 0.000000 0.000000
												CHANNELS 3 Xrotation Yrotation Zrotation
												End Site
												{
													OFFSET 4.651108 6.158463 0.251582
												}
											}
										}
									}
								}
								JOINT RightHandRing1
								{
									OFFSET -22.726120 -0.094986 -6.500475
									CHANNELS 3 Xrotation Yrotation Zrotation
									JOINT RightHandRing2
									{
										OFFSET -6.408615 0.000000 0.000000
										CHANNELS 3 Xrotation Yrotation Zrotation
										JOINT RightHandRing3
										{
											OFFSET -6.150223 0.000000 0.000000
											CHANNELS 3 Xrotation Yrotation Zrotation
											JOINT RightHandRing4
											{
												OFFSET -6.145386 0.000000 0.000000
												CHANNELS 3 Xrotation Yrotation Zrotation
												End Site
												{
													OFFSET 3.671402 4.923981 -0.202372
												}
											}
										}
									}
								}
								JOINT RightHandPinky1
								{
									OFFSET -18.920792 -0.453171 -11.426712
									CHANNELS 3 Xrotation Yrotation Zrotation
									JOINT RightHandPinky2
									{
										OFFSET -4.919586 0.000000 0.000000
										CHANNELS 3 Xrotation Yrotation Zrotation
										JOINT RightHandPinky3
										{
											OFFSET -5.233047 0.000000 0.000000
											CHANNELS 3 Xrotation Yrotation Zrotation
											JOINT RightHandPinky4
											{
												OFFSET -5.571716 0.000000 0.000000
												CHANNELS 3 Xrotation Yrotation Zrotation
												End Site
												{
													OFFSET 3.459808 4.342407 -0.466164
												}
											}
										}
									}
								}
							}
						}
					}
				}
			}
		}
	}
	JOINT LeftUpLeg
	{
		OFFSET 19.899099 -7.885101 -3.429500
		CHANNELS 3 Xrotation Yrotation Zrotation
		JOINT LeftLeg
		{
			OFFSET 1.745560 -36.997807 10.304700
			CHANNELS 3 Xrotation Yrotation Zrotation
			JOINT LeftFoot
			{
				OFFSET -1.745558 -29.803308 -13.615400
				CHANNELS 3 Xrotation Yrotation Zrotation
				JOINT LeftToeBase
				{
					OFFSET 1.181900 -18.539904 15.226099
					CHANNELS 3 Xrotation Yrotation Zrotation
					JOINT LeftToe_End
					{
						OFFSET -0.863701 1.402801 16.534700
						CHANNELS 3 Xrotation Yrotation Zrotation
						End Site
						{
							OFFSET 0.000000 16.616566 0.000000
						}
					}
				}
			}
		}
	}
	JOINT RightUpLeg
	{
		OFFSET -19.899099 -7.885101 -3.429500
		CHANNELS 3 Xrotation Yrotation Zrotation
		JOINT RightLeg
		{
			OFFSET -1.745560 -36.997807 10.304700
			CHANNELS 3 Xrotation Yrotation Zrotation
			JOINT RightFoot
			{
				OFFSET 1.745558 -29.803308 -13.615400
				CHANNELS 3 Xrotation Yrotation Zrotation
				JOINT RightToeBase
				{
					OFFSET -1.181900 -18.539904 15.226099
					CHANNELS 3 Xrotation Yrotation Zrotation
					JOINT RightToe_End
					{
						OFFSET 0.863701 1.402801 16.534700
						CHANNELS 3 Xrotation Yrotation Zrotation
						End Site
						{
							OFFSET 0.000000 16.616566 0.000000
						}
					}
				}
			}
		}
	}
}
MOTION
Frames: 5
Frame Time: 0.033333
218.861572 87.319191 -2.214911 -177.565780 -0.131527 175.130162 1.722193 0.003152 1.750799 3.446062 0.185904 0.712666 3.446061 0.185904 0.712666 -0.782443 -1.576184 3.805317 0.841639 2.313906 4.281352 -0.000000 0.000000 0.000000 0.578252 -9.717387 -9.762087 -1.539219 -9.338515 -71.362506 31.607585 -5.086939 3.641917 -5.496964 -6.525413 -2.933860 44.596214 5.219564 31.157998 2.426616 20.932114 10.996096 -4.919774 -10.077572 -2.388541 0.000000 0.000001 -0.000001 0.962357 7.927112 -30.796053 9.105841 2.503074 -35.791366 9.816683 4.559748 -7.505640 0.000002 -0.000003 -0.000006 0.946357 8.272308 -29.052189 6.596262 1.105994 -36.045336 5.813663 -0.147287 -11.497864 -0.000000 -0.000005 0.000001 0.398749 6.167424 -16.901276 5.414357 0.826604 -39.294789 5.759533 -0.110571 -7.097877 -0.000001 -0.000002 0.000004 0.151985 4.943529 -1.638189 2.820302 1.655589 -38.330912 4.413804 -2.297986 -5.968671 -0.000002 0.000001 0.000001 0.629012 2.929859 20.347364 -7.009351 19.459156 54.066288 24.200071 6.400553 -3.312633 -5.618443 10.328865 -4.389317 4.280801 -15.890118 -2.422256 1.836940 -18.253809 -10.474643 -2.576123 5.196140 1.002200 -0.000004 -0.000000 -0.000004 0.815702 -7.341102 29.157777 1.921651 0.060841 16.932184 4.528723 2.821048 11.169179 0.000004 -0.000001 0.000001 1.407119 -8.005359 40.252224 4.496513 0.856180 17.906990 6.072492 4.827152 12.436037 0.000002 0.000001 -0.000006 2.288401 -9.822533 52.036028 5.775683 0.626583 14.653891 6.114418 6.591892 12.764625 -0.000000 0.000004 -0.000001 0.338235 -8.339687 60.178065 8.289387 -0.760727 14.380700 10.669913 0.128429 12.856344 -0.000000 -0.000004 0.000005 -22.311559 4.283717 4.230868 56.704172 11.373327 0.593031 -4.014737 -0.637795 6.257476 -17.087783 2.822098 -9.746386 -0.000001 0.000002 -0.000001 -8.001077 -3.719749 7.687743 28.655765 -9.574370 0.248610 -18.170518 -0.826207 -0.696363 -0.157732 -0.005652 0.007881 -0.000000 -0.000000 -0.000000 
219.179291 88.096085 -5.723260 -178.081951 -0.019247 176.466871 1.676009 0.432059 1.390026 3.367272 0.827525 0.486062 3.367275 0.827526 0.486062 -0.926696 -1.646169 2.881826 0.569310 1.415812 4.867540 -0.000000 -0.000000 -0.000000 0.543729 -8.577600 -10.673147 1.267068 -6.677842 -71.524880 30.966356 -5.245330 3.661102 -5.491338 -6.314417 -3.058366 44.596211 5.219560 31.157991 2.426620 20.932117 10.996098 -4.919778 -10.077573 -2.388540 0.000002 0.000002 0.000003 0.962359 7.927114 -30.796056 9.105846 2.503069 -35.791363 9.816688 4.559746 -7.505637 -0.000000 -0.000001 -0.000006 0.946362 8.272307 -29.052196 6.596262 1.105994 -36.045336 5.813667 -0.147286 -11.497869 0.000001 0.000001 0.000002 0.398748 6.167425 -16.901277 5.414358 0.826606 -39.294789 5.759539 -0.110569 -7.097878 -0.000002 -0.000006 0.000010 0.151991 4.943529 -1.638188 2.820307 1.655590 -38.330906 4.413808 -2.297986 -5.968676 0.000003 0.000001 0.000001 0.538458 4.070725 19.064456 -9.165206 21.921699 53.130525 21.642067 8.675193 -3.741873 -5.515034 9.699537 -4.506311 4.280804 -15.890116 -2.422249 1.836933 -18.253809 -10.474643 -2.576124 5.196139 1.002198 -0.000003 0.000003 0.000001 0.815705 -7.341098 29.157777 1.921653 0.060844 16.932186 4.528724 2.821049 11.169183 0.000001 0.000000 -0.000001 1.407122 -8.005358 40.252221 4.496519 0.856177 17.906992 6.072488 4.827155 12.436035 0.000004 0.000001 -0.000004 2.288402 -9.822532 52.036028 5.775675 0.626581 14.653887 6.114410 6.591894 12.764618 -0.000001 0.000001 -0.000003 0.338236 -8.339687 60.178058 8.289390 -0.760733 14.380699 10.669905 0.128426 12.856352 0.000002 0.000001 -0.000001 -24.675190 4.176100 2.174536 49.071238 12.813592 0.604378 -3.720475 -0.509102 6.062942 -12.464701 1.680035 -7.931403 0.000000 0.000001 0.000000 -4.462844 -3.653456 6.705084 26.490851 -8.838405 0.242158 -20.213731 -0.733478 -0.735683 -0.045654 -0.003150 -0.002820 0.000000 0.000000 -0.000000 
219.530548 89.051399 -9.109726 -178.620744 0.078880 177.703135 1.644616 0.801672 0.969713 3.308454 1.380633 0.322860 3.308454 1.380634 0.322860 -1.047429 -1.776292 2.127496 0.226365 0.430323 5.328216 -0.000000 0.000000 -0.000000 0.528694 -7.652859 -11.330721 4.508496 -4.259554 -71.780002 28.931759 -6.350719 3.974682 -5.519443 -6.455970 -2.828720 44.596214 5.219564 31.157998 2.426617 20.932114 10.996104 -4.919771 -10.077576 -2.388547 0.000001 0.000001 -0.000001 0.962356 7.927114 -30.796053 9.105845 2.503073 -35.791369 9.816689 4.559749 -7.505639 0.000001 -0.000002 -0.000008 0.946355 8.272308 -29.052189 6.596265 1.105994 -36.045330 5.813667 -0.147284 -11.497867 0.000000 0.000000 0.000003 0.398749 6.167424 -16.901276 5.414348 0.826605 -39.294785 5.759537 -0.110567 -7.097880 -0.000001 -0.000001 0.000001 0.151981 4.943525 -1.638189 2.820302 1.655590 -38.330906 4.413807 -2.297981 -5.968671 0.000001 0.000003 0.000002 0.482871 4.895775 18.236363 -11.129437 23.904947 51.723721 19.479390 10.426361 -3.949525 -5.393565 9.034383 -4.741408 4.280798 -15.890118 -2.422254 1.836940 -18.253807 -10.474644 -2.576120 5.196138 1.002203 0.000002 0.000003 -0.000000 0.815703 -7.341098 29.157777 1.921648 0.060842 16.932181 4.528725 2.821047 11.169181 -0.000003 0.000004 0.000001 1.407120 -8.005358 40.252224 4.496510 0.856180 17.906990 6.072495 4.827153 12.436039 0.000001 -0.000001 -0.000001 2.288397 -9.822528 52.036025 5.775675 0.626583 14.653889 6.114410 6.591897 12.764620 0.000001 0.000002 -0.000003 0.338233 -8.339685 60.178065 8.289392 -0.760731 14.380699 10.669915 0.128430 12.856352 0.000000 -0.000000 0.000002 -26.790970 3.979419 -0.133539 39.347781 14.015381 0.651653 -0.270390 -0.509311 6.872316 -7.716507 0.851998 -5.909122 0.000000 0.000001 -0.000000 -0.545160 -3.497351 5.683596 23.180962 -8.533492 0.202168 -21.408598 -0.673067 -0.597496 0.019462 0.007054 -0.016208 -0.000000 -0.000000 -0.000000 
219.785736 90.073784 -12.271447 -179.207539 0.108910 178.817522 1.601443 1.115158 0.403822 3.211405 1.888171 0.231140 3.211407 1.888172 0.231140 -1.108980 -1.973603 1.599201 -0.046259 -0.599327 5.756007 -0.000000 0.000000 -0.000000 0.524824 -7.006220 -11.731195 7.768578 -2.355448 -72.013389 27.060894 -7.658688 4.330109 -5.540019 -6.738580 -2.345150 44.596214 5.219564 31.157998 2.426620 20.932122 10.996102 -4.919778 -10.077574 -2.388539 -0.000001 0.000002 -0.000002 0.962358 7.927115 -30.796056 9.105846 2.503074 -35.791369 9.816684 4.559751 -7.505634 0.000002 0.000002 -0.000005 0.946360 8.272307 -29.052189 6.596261 1.105996 -36.045333 5.813666 -0.147288 -11.497870 0.000001 -0.000001 -0.000000 0.398752 6.167423 -16.901276 5.414361 0.826609 -39.294789 5.759535 -0.110569 -7.097880 0.000000 -0.000001 0.000001 0.151987 4.943530 -1.638186 2.820300 1.655584 -38.330909 4.413805 -2.297980 -5.968676 0.000001 0.000003 -0.000001 0.449356 5.422625 17.776891 -12.710532 25.599771 50.149581 17.505363 12.098967 -4.051056 -5.247853 8.587237 -5.608063 4.280802 -15.890121 -2.422249 1.836933 -18.253807 -10.474642 -2.576119 5.196141 1.002205 0.000002 -0.000001 -0.000002 0.815703 -7.341102 29.157780 1.921649 0.060845 16.932181 4.528724 2.821051 11.169185 -0.000003 -0.000003 -0.000001 1.407125 -8.005358 40.252224 4.496519 0.856180 17.906992 6.072495 4.827154 12.436040 0.000000 0.000001 -0.000004 2.288408 -9.822533 52.036028 5.775687 0.626580 14.653889 6.114412 6.591892 12.764620 -0.000001 -0.000001 -0.000005 0.338237 -8.339685 60.178065 8.289390 -0.760731 14.380704 10.669910 0.128426 12.856352 -0.000000 -0.000000 0.000002 -28.797563 3.770959 -2.404671 28.336134 13.948075 0.884002 5.008862 -0.494808 8.627219 -1.026896 0.119122 -2.392441 -0.000000 0.000001 0.000000 3.082185 -3.284872 4.727547 19.406376 -8.492604 0.077723 -21.542403 -0.696792 -0.355294 -0.518656 0.009676 0.012685 -0.000000 0.000000 0.000000 
219.918701 91.087654 -15.078505 -179.812134 -0.026137 179.794594 1.530954 1.320623 -0.291918 3.042528 2.324900 0.205201 3.042527 2.324896 0.205201 -1.076805 -2.212097 1.303208 -0.162563 -1.575007 6.170047 -0.000000 0.000000 0.000000 0.527407 -6.609455 -11.877781 10.727677 -0.667802 -72.326055 25.972903 -8.597758 4.579771 -5.523891 -6.957238 -1.678919 44.596211 5.219561 31.157998 2.426622 20.932115 10.996102 -4.919775 -10.077570 -2.388542 -0.000000 -0.000001 -0.000004 0.962353 7.927115 -30.796059 9.105843 2.503070 -35.791366 9.816685 4.559751 -7.505637 0.000002 0.000000 -0.000002 0.946355 8.272307 -29.052193 6.596265 1.105995 -36.045333 5.813667 -0.147287 -11.497867 0.000000 0.000004 0.000004 0.398747 6.167423 -16.901274 5.414354 0.826604 -39.294792 5.759541 -0.110567 -7.097880 -0.000002 -0.000003 -0.000003 0.151986 4.943525 -1.638188 2.820304 1.655592 -38.330906 4.413806 -2.297981 -5.968676 -0.000002 0.000003 0.000001 0.430941 5.727685 17.555183 -13.948224 26.857636 48.766154 15.808601 13.802597 -4.103717 -5.094512 8.402127 -6.975535 4.280802 -15.890121 -2.422253 1.836939 -18.253810 -10.474645 -2.576120 5.196142 1.002202 -0.000002 -0.000001 0.000001 0.815698 -7.341103 29.157780 1.921646 0.060842 16.932182 4.528722 2.821048 11.169184 -0.000000 -0.000002 -0.000003 1.407118 -8.005361 40.252224 4.496515 0.856174 17.906994 6.072492 4.827152 12.436035 -0.000000 0.000001 -0.000001 2.288403 -9.822532 52.036025 5.775678 0.626580 14.653889 6.114412 6.591896 12.764620 0.000001 -0.000004 -0.000002 0.338233 -8.339691 60.178065 8.289392 -0.760731 14.380702 10.669911 0.128426 12.856346 0.000002 0.000001 0.000002 -30.149900 3.736257 -4.412070 17.333564 11.995690 1.111150 9.630578 -0.320358 9.650574 -0.094325 0.014584 -0.078517 -0.000000 -0.000000 0.000000 5.744167 -3.302371 3.851657 16.303651 -8.496993 -0.140156 -20.521174 -0.742398 -0.118025 -2.285306 -0.002910 0.200613 -0.000000 0.000002 0.000000 
